<?xml version="1.0" encoding="utf-8"?>
<!-- Generator: Adobe Illustrator 25.0.0, SVG Export Plug-In . SVG Version: 6.00 Build 0)  -->
<svg version="1.1" id="Camada_1" xmlns="http://www.w3.org/2000/svg" xmlns:xlink="http://www.w3.org/1999/xlink" x="0px" y="0px"
	 viewBox="0 0 512 512" style="enable-background:new 0 0 512 512;" xml:space="preserve">
<style type="text/css">
	.st0{fill:#99D5E6;}
</style>
<g>
	<ellipse class="st0" cx="256.9" cy="256" rx="43.9" ry="43.9"/>
	<path class="st0" d="M359.6,178.6c-2.1-5.7-5.4-10.8-9.8-15.1c-4.2-4.3-9.4-7.7-15.1-9.8c-4.6-1.8-11.5-3.9-24.4-4.5
		c-13.9-0.6-18-0.8-53.2-0.8c-35.1,0-39.3,0.2-53.2,0.8c-12.8,0.5-19.8,2.7-24.4,4.5c-5.7,2.1-10.8,5.4-15.1,9.8
		c-4.4,4.2-7.8,9.4-9.9,15.1c-1.8,4.6-3.9,11.5-4.5,24.4c-0.6,13.9-0.8,18.1-0.8,53.2s0.2,39.3,0.8,53.2c0.5,12.8,2.7,19.8,4.5,24.4
		c2.1,5.7,5.4,10.8,9.8,15.1c4.2,4.3,9.4,7.7,15.1,9.8c4.6,1.8,11.5,3.9,24.4,4.5c13.9,0.6,18.1,0.8,53.2,0.8s39.3-0.2,53.2-0.8
		c12.8-0.5,19.8-2.7,24.4-4.5c11.5-4.4,20.6-13.5,25-25c1.8-4.6,3.9-11.5,4.5-24.4c0.6-13.9,0.8-18,0.8-53.1s-0.2-39.3-0.8-53.2
		C363.6,190.2,361.4,183.2,359.6,178.6z M256.9,323.6c-37.3,0-67.6-30.3-67.6-67.6s30.3-67.6,67.6-67.6s67.6,30.3,67.6,67.6
		S294.2,323.6,256.9,323.6z M327.2,201.5c-8.7,0-15.8-7.1-15.8-15.8s7.1-15.8,15.8-15.8c8.7,0,15.8,7.1,15.8,15.8
		S335.9,201.5,327.2,201.5z"/>
	<path class="st0" d="M256,0C114.6,0,0,114.6,0,256s114.6,256,256,256s256-114.6,256-256S397.4,0,256,0z M387.7,310.4
		c-0.6,13.9-2.9,23.5-6.1,31.9c-6.8,17.7-20.8,31.7-38.5,38.5c-8.3,3.2-17.9,5.5-31.9,6.1c-14.1,0.6-18.5,0.8-54.3,0.8
		s-40.3-0.2-54.3-0.8c-13.9-0.6-23.5-2.9-31.9-6.1c-8.7-3.3-16.7-8.5-23.3-15.2c-6.7-6.6-11.9-14.6-15.2-23.4
		c-3.2-8.3-5.5-17.9-6.1-31.9c-0.6-14.1-0.8-18.6-0.8-54.3s0.1-40.2,0.8-54.3c0.6-13.9,2.9-23.5,6.1-31.9
		c3.3-8.7,8.5-16.7,15.2-23.3c6.6-6.7,14.6-11.9,23.4-15.2c8.3-3.2,17.9-5.5,31.9-6.1c14.1-0.6,18.6-0.8,54.3-0.8s40.2,0.1,54.3,0.8
		c13.9,0.6,23.5,2.9,31.9,6.1c8.7,3.3,16.7,8.5,23.3,15.2c6.7,6.6,11.9,14.6,15.2,23.4c3.2,8.3,5.5,17.9,6.1,31.9s0.7,18.5,0.7,54.3
		S388.3,296.4,387.7,310.4z"/>
</g>
</svg>
