<?xml version="1.0" encoding="utf-8"?>
<!-- Generator: Adobe Illustrator 25.0.0, SVG Export Plug-In . SVG Version: 6.00 Build 0)  -->
<svg version="1.1" id="Capa_1" xmlns="http://www.w3.org/2000/svg" xmlns:xlink="http://www.w3.org/1999/xlink" x="0px" y="0px"
	 viewBox="0 0 512 512" style="enable-background:new 0 0 512 512;" xml:space="preserve">
<style type="text/css">
	.st0{fill:#99D5E6;}
</style>
<path class="st0" d="M256,0C114.6,0,0,114.6,0,256s114.6,256,256,256s256-114.6,256-256S397.4,0,256,0z M163,137
	c14.4,0,26,11.6,26,26s-11.6,26-26,26s-26-11.6-26-26S148.6,137,163,137z M190.2,375H137V211.4h53.2V375z M375,375h-53.2
	c0,0,0-67.4,0-104.1c-17-41.1-57.2,14.9-57.2,14.9V375h-53.2V211.4h53.2v31.3c6.5-8.7,26.2-31.3,57.2-31.3c3.6,0,6.7,0.4,9.5,1
	c0.8,0.1,1.5,0.2,2.2,0.4c0.6,0.1,1.1,0.3,1.7,0.5c22.9,6,39.8,26.6,39.8,51.3V375z"/>
</svg>
