<?xml version="1.0" encoding="utf-8"?>
<!-- Generator: Adobe Illustrator 25.0.0, SVG Export Plug-In . SVG Version: 6.00 Build 0)  -->
<svg version="1.1" id="Camada_1" xmlns="http://www.w3.org/2000/svg" xmlns:xlink="http://www.w3.org/1999/xlink" x="0px" y="0px"
	 viewBox="0 0 855 252" style="enable-background:new 0 0 855 252;" xml:space="preserve">
<style type="text/css">
	.st0{fill-rule:evenodd;clip-rule:evenodd;fill:#54B848;}
	.st1{fill-rule:evenodd;clip-rule:evenodd;fill:#241C21;}
	.st2{fill-rule:evenodd;clip-rule:evenodd;fill:#CCE3B0;}
	.st3{fill-rule:evenodd;clip-rule:evenodd;fill:#57B847;}
	.st4{fill-rule:evenodd;clip-rule:evenodd;fill:#BABCC0;}
</style>
<g>
	<g>
		<polygon class="st0" points="482.7,83.6 440.3,83.6 453.3,64 469.7,64 		"/>
		<path class="st1" d="M855,88.9h-15.9v36.9H855V88.9L855,88.9z M798,125.8l-28.4-42.2l0,42.2h-15.9V64h21.9l28.8,42.7L833.1,64H855
			v19.6h-15.9l-28.4,42.2H798L798,125.8z M657.2,79.9h60.9c2,0,3.7,1.7,3.7,3.7v22.6c0,2-1.7,3.7-3.7,3.7h-60.9
			c-2,0-3.7-1.7-3.7-3.7V83.6C653.5,81.6,655.1,79.9,657.2,79.9L657.2,79.9z M653.5,64c-8.8,0-15.9,7.2-15.9,15.9v29.9
			c0,8.8,7.2,15.9,15.9,15.9h68.3c8.8,0,15.9-7.2,15.9-15.9V79.9c0-8.8-7.2-15.9-15.9-15.9H653.5L653.5,64z M621.7,79.9l-80.5,0
			c-2,0-3.7,1.7-3.7,3.7v22.6c0,2,1.7,3.7,3.7,3.7h80.5v15.9l-84.2,0c-8.8,0-15.9-7.2-15.9-15.9V79.9c0-8.8,7.2-15.9,15.9-15.9
			l68.9,0C614.6,64,621.7,71.1,621.7,79.9L621.7,79.9z M486.2,88.9l24.4,36.9l-19.1,0l-13.9-20.9h-32.4l-13.9,20.9l-19,0l24.4-36.9
			H486.2L486.2,88.9z M357,125.8l28.4-42.2l0,42.2h15.9V64h-21.9l-28.8,42.7L321.9,64H300v19.6h15.9l28.4,42.2H357L357,125.8z
			 M300,88.9h15.9v36.9H300V88.9z"/>
		<path class="st0" d="M327.1,160.3c-0.7-0.8-1.4-1.5-2.2-2.1c-0.8-0.6-1.7-1-2.6-1.4c-0.9-0.4-1.9-0.6-2.8-0.8
			c-0.9-0.2-1.8-0.2-2.7-0.2c-2.4,0-4.6,0.4-6.7,1.1c-2,0.8-3.8,1.8-5.3,3.3c-1.5,1.4-2.6,3.1-3.5,5.1c-0.8,2-1.2,4.2-1.2,6.7
			c0,2.5,0.4,4.7,1.2,6.7c0.8,2,2,3.7,3.5,5.1c1.5,1.4,3.2,2.5,5.3,3.3c2,0.8,4.2,1.1,6.7,1.1c1.4,0,2.8-0.2,4.2-0.6
			c1.4-0.4,2.7-1,3.9-1.8c1.2-0.8,2.2-1.8,3.1-3l-5.7-4.2c-0.7,1.1-1.6,1.9-2.7,2.4c-1.1,0.6-2.3,0.9-3.7,0.9
			c-1.2,0-2.4-0.3-3.4-0.7c-1.1-0.5-2-1.2-2.8-2.1c-0.8-0.9-1.4-1.9-1.8-3.1c-0.4-1.2-0.7-2.5-0.7-4c0-1.4,0.2-2.8,0.7-4
			c0.4-1.2,1.1-2.3,1.9-3.1c0.8-0.9,1.8-1.6,2.8-2.1c1.1-0.5,2.3-0.7,3.6-0.7c1.3,0,2.4,0.2,3.4,0.7c1,0.4,1.8,1.1,2.5,1.9
			L327.1,160.3L327.1,160.3z M328.5,176.8c0,1.7,0.3,3.2,0.9,4.6c0.6,1.4,1.4,2.5,2.5,3.5c1.1,1,2.3,1.7,3.7,2.2
			c1.4,0.5,3,0.8,4.6,0.8c1.6,0,3.2-0.3,4.6-0.8c1.4-0.5,2.7-1.3,3.7-2.2c1.1-1,1.9-2.1,2.5-3.5c0.6-1.4,0.9-2.9,0.9-4.6
			c0-1.7-0.3-3.2-0.9-4.6c-0.6-1.4-1.4-2.5-2.5-3.5c-1.1-1-2.3-1.7-3.7-2.2c-1.4-0.5-3-0.8-4.6-0.8c-1.6,0-3.2,0.3-4.6,0.8
			c-1.4,0.5-2.7,1.3-3.7,2.2c-1.1,1-1.9,2.1-2.5,3.5C328.8,173.6,328.5,175.1,328.5,176.8L328.5,176.8z M335,176.8
			c0-1.1,0.2-2,0.6-2.8c0.4-0.8,1-1.4,1.8-1.9c0.8-0.5,1.7-0.7,2.8-0.7c1.1,0,2,0.2,2.8,0.7c0.8,0.5,1.4,1.1,1.8,1.9
			c0.4,0.8,0.6,1.7,0.6,2.8c0,1.1-0.2,2-0.6,2.8c-0.4,0.8-1,1.4-1.8,1.9c-0.8,0.4-1.7,0.7-2.8,0.7c-1.1,0-2-0.2-2.8-0.7
			c-0.8-0.5-1.4-1.1-1.8-1.9C335.3,178.8,335.1,177.9,335,176.8L335,176.8z M354.5,187.4h6.5v-10.5c0-0.7,0-1.4,0.1-2
			c0.1-0.6,0.3-1.2,0.5-1.7c0.3-0.5,0.7-0.9,1.2-1.2c0.5-0.3,1.2-0.5,2-0.5c0.8,0,1.5,0.2,1.9,0.5c0.5,0.3,0.8,0.8,1,1.3
			c0.2,0.6,0.3,1.2,0.4,1.8c0.1,0.6,0.1,1.3,0.1,1.9v10.4h6.5v-11.7c0-1.4-0.1-2.7-0.3-4c-0.2-1.2-0.6-2.3-1.1-3.2
			c-0.6-0.9-1.4-1.6-2.4-2.1c-1-0.5-2.4-0.8-4-0.8c-1.1,0-2,0.2-2.8,0.5c-0.8,0.3-1.5,0.7-2.1,1.3c-0.6,0.5-1,1.1-1.3,1.6h-0.1v-2.9
			h-6.3V187.4L354.5,187.4z M394.1,168.5c-0.7-0.7-1.4-1.2-2.3-1.7c-0.9-0.4-1.8-0.7-2.7-0.9c-1-0.2-1.9-0.3-2.8-0.3
			c-1.1,0-2.2,0.1-3.3,0.4c-1.1,0.3-2,0.7-2.8,1.3c-0.8,0.6-1.5,1.3-2,2.2c-0.5,0.9-0.7,2-0.8,3.2c0,1.1,0.2,2.1,0.6,2.8
			c0.4,0.7,0.9,1.3,1.6,1.8c0.7,0.5,1.4,0.8,2.2,1.1c0.8,0.3,1.6,0.5,2.3,0.6c0.8,0.2,1.5,0.3,2.1,0.5c0.7,0.2,1.2,0.4,1.6,0.7
			c0.4,0.3,0.6,0.6,0.6,1.1c0,0.4-0.2,0.7-0.4,0.9c-0.3,0.2-0.7,0.4-1.1,0.5c-0.5,0.1-0.9,0.1-1.4,0.1c-1,0-1.8-0.2-2.6-0.6
			c-0.8-0.4-1.4-1-2-1.7l-4,4.4c0.7,0.7,1.5,1.3,2.4,1.7c0.9,0.4,1.9,0.7,2.9,0.9c1,0.2,2,0.3,3,0.3c0.9,0,1.8-0.1,2.8-0.2
			c0.9-0.1,1.8-0.4,2.6-0.7c0.8-0.3,1.6-0.7,2.2-1.3c0.7-0.5,1.2-1.2,1.5-2c0.4-0.8,0.6-1.7,0.6-2.8c0-1.1-0.2-2.1-0.6-2.8
			c-0.4-0.8-0.9-1.4-1.6-1.8c-0.7-0.5-1.4-0.8-2.1-1.1c-0.8-0.3-1.6-0.5-2.4-0.6c-0.8-0.2-1.5-0.3-2.1-0.5c-0.7-0.2-1.2-0.4-1.6-0.6
			c-0.4-0.3-0.6-0.6-0.6-1c0-0.4,0.1-0.8,0.4-1c0.2-0.3,0.6-0.4,0.9-0.6c0.4-0.1,0.7-0.2,1.1-0.2c0.8,0,1.5,0.2,2.1,0.5
			c0.6,0.3,1.2,0.7,1.7,1.3L394.1,168.5L394.1,168.5z M411.3,166.2v5.2h-5.7v7.1c0,0.6,0,1.1,0.1,1.6c0.1,0.5,0.2,0.9,0.4,1.2
			c0.2,0.3,0.5,0.6,0.9,0.8c0.4,0.2,1,0.3,1.7,0.3c0.2,0,0.5,0,0.9,0c0.3,0,0.7-0.1,1-0.2c0.3-0.1,0.6-0.2,0.8-0.4v5.4
			c-0.7,0.3-1.5,0.4-2.3,0.5c-0.8,0.1-1.5,0.1-2.3,0.1c-1.1,0-2.1-0.1-3-0.3c-0.9-0.2-1.7-0.6-2.4-1.1c-0.7-0.5-1.2-1.2-1.6-2
			c-0.4-0.8-0.6-1.8-0.6-2.9v-10.1h-4.2v-5.2h4.2V160h6.5v6.3H411.3L411.3,166.2z M413.2,187.4h6.5v-8.8c0-1.1,0.1-2,0.2-2.9
			c0.1-0.9,0.4-1.6,0.7-2.2c0.4-0.6,0.9-1.1,1.7-1.5c0.7-0.3,1.7-0.5,3-0.5c0.5,0,1,0,1.4,0.1c0.5,0.1,0.9,0.2,1.4,0.3v-6
			c-0.3-0.1-0.7-0.1-1-0.2c-0.4,0-0.8,0-1.1,0c-1,0-1.8,0.2-2.5,0.4c-0.7,0.3-1.4,0.7-2,1.3c-0.6,0.6-1.1,1.3-1.6,2.2h-0.1v-3.4
			h-6.5V187.4L413.2,187.4z M449.9,166.2h-6.5v10.5c0,0.7,0,1.4-0.1,2c-0.1,0.6-0.3,1.2-0.6,1.7c-0.3,0.5-0.7,0.9-1.2,1.2
			c-0.5,0.3-1.2,0.5-2,0.5c-0.8,0-1.5-0.2-1.9-0.5c-0.5-0.3-0.8-0.8-1-1.3c-0.2-0.6-0.3-1.2-0.4-1.8c0-0.6-0.1-1.3-0.1-1.9v-10.4
			h-6.5v11.7c0,1.4,0.1,2.7,0.3,4c0.2,1.2,0.6,2.3,1.1,3.2c0.6,0.9,1.4,1.6,2.4,2.1c1,0.5,2.4,0.8,4,0.8c1.1,0,2-0.2,2.8-0.5
			c0.8-0.3,1.5-0.8,2.1-1.3c0.6-0.5,1-1.1,1.3-1.6h0.1v2.9h6.3V166.2L449.9,166.2z M467.6,166.2h-5.7V160h-6.5v6.3h-4.2v5.2h4.2
			v10.1c0,1.2,0.2,2.1,0.6,2.9c0.4,0.8,0.9,1.5,1.6,2c0.7,0.5,1.5,0.9,2.4,1.1c0.9,0.2,1.9,0.3,3,0.3c0.8,0,1.5,0,2.3-0.1
			c0.8-0.1,1.5-0.3,2.3-0.5v-5.4c-0.2,0.2-0.5,0.3-0.8,0.4c-0.3,0.1-0.7,0.1-1,0.2c-0.3,0-0.6,0-0.9,0c-0.7,0-1.3-0.1-1.7-0.3
			c-0.4-0.2-0.7-0.5-0.9-0.8c-0.2-0.3-0.3-0.8-0.4-1.2c-0.1-0.5-0.1-1-0.1-1.6v-7.1h5.7V166.2L467.6,166.2z M468.7,176.8
			c0,1.7,0.3,3.2,0.9,4.6c0.6,1.4,1.4,2.5,2.5,3.5c1.1,1,2.3,1.7,3.7,2.2c1.4,0.5,3,0.8,4.6,0.8c1.6,0,3.2-0.3,4.6-0.8
			c1.4-0.5,2.7-1.3,3.7-2.2c1.1-1,1.9-2.1,2.5-3.5c0.6-1.4,0.9-2.9,0.9-4.6c0-1.7-0.3-3.2-0.9-4.6c-0.6-1.4-1.4-2.5-2.5-3.5
			c-1.1-1-2.3-1.7-3.7-2.2c-1.4-0.5-3-0.8-4.6-0.8c-1.6,0-3.2,0.3-4.6,0.8c-1.4,0.5-2.7,1.3-3.7,2.2c-1.1,1-1.9,2.1-2.5,3.5
			C469,173.6,468.7,175.1,468.7,176.8L468.7,176.8z M475.2,176.8c0-1.1,0.2-2,0.6-2.8c0.4-0.8,1-1.4,1.8-1.9
			c0.8-0.5,1.7-0.7,2.8-0.7c1.1,0,2,0.2,2.8,0.7c0.8,0.5,1.4,1.1,1.8,1.9c0.4,0.8,0.6,1.7,0.6,2.8c0,1.1-0.2,2-0.6,2.8
			c-0.4,0.8-1,1.4-1.8,1.9c-0.8,0.4-1.7,0.7-2.8,0.7c-1.1,0-2-0.2-2.8-0.7c-0.8-0.5-1.4-1.1-1.8-1.9
			C475.4,178.8,475.2,177.9,475.2,176.8L475.2,176.8z M494.6,187.4h6.5v-8.8c0-1.1,0.1-2,0.2-2.9c0.1-0.9,0.4-1.6,0.7-2.2
			c0.4-0.6,0.9-1.1,1.7-1.5c0.7-0.3,1.7-0.5,3-0.5c0.5,0,1,0,1.4,0.1c0.5,0.1,0.9,0.2,1.4,0.3v-6c-0.3-0.1-0.7-0.1-1-0.2
			c-0.4,0-0.8,0-1.1,0c-1,0-1.8,0.2-2.5,0.4c-0.7,0.3-1.4,0.7-2,1.3c-0.6,0.6-1.1,1.3-1.6,2.2h-0.1v-3.4h-6.5V187.4L494.6,187.4z
			 M524.3,187.4h6v-10.8c0-1.8-0.1-3.3-0.4-4.7c-0.3-1.4-0.8-2.5-1.5-3.4c-0.7-0.9-1.7-1.6-3-2.1c-1.3-0.5-2.8-0.7-4.7-0.7
			c-1.2,0-2.3,0.1-3.4,0.4c-1.1,0.3-2.2,0.6-3.2,1.1c-1,0.5-1.9,1.1-2.7,1.9l3.5,3.6c0.7-0.8,1.5-1.4,2.4-1.9
			c0.9-0.4,1.9-0.7,2.9-0.7c0.8,0,1.5,0.2,2.1,0.5c0.6,0.3,1.1,0.7,1.5,1.3c0.4,0.6,0.6,1.2,0.6,2c-0.9,0-1.9,0-3,0
			c-1,0-2.1,0.1-3.2,0.3c-1.1,0.1-2.1,0.4-3.1,0.7c-1,0.3-1.9,0.7-2.6,1.3c-0.8,0.5-1.4,1.2-1.8,2.1c-0.4,0.9-0.7,1.9-0.7,3.1
			c0,1.1,0.2,2,0.6,2.8c0.4,0.8,1,1.5,1.7,2c0.7,0.6,1.5,1,2.4,1.2c0.9,0.3,1.9,0.4,2.9,0.4c0.9,0,1.8-0.1,2.6-0.3
			c0.8-0.2,1.6-0.6,2.3-1c0.7-0.5,1.3-1.1,1.8-1.8h0.1V187.4L524.3,187.4z M524.3,178.1v1.4c0,0.7-0.1,1.2-0.4,1.7
			c-0.3,0.5-0.6,0.9-1.1,1.2c-0.5,0.3-1,0.6-1.6,0.7c-0.6,0.2-1.2,0.3-1.9,0.3c-0.5,0-1-0.1-1.4-0.2c-0.5-0.2-0.9-0.4-1.2-0.8
			c-0.3-0.3-0.5-0.8-0.5-1.3c0-0.6,0.2-1,0.5-1.4c0.3-0.4,0.7-0.7,1.2-0.9c0.5-0.2,1-0.4,1.6-0.5c0.6-0.1,1.1-0.2,1.7-0.2
			c0.5,0,1-0.1,1.4,0H524.3L524.3,178.1z M561.3,180.4c-0.4,0.5-0.8,0.9-1.2,1.3c-0.4,0.4-1,0.7-1.5,0.9c-0.6,0.2-1.2,0.3-1.9,0.3
			c-0.9,0-1.6-0.2-2.3-0.5c-0.7-0.3-1.2-0.8-1.7-1.4c-0.4-0.6-0.8-1.3-0.9-2.2h15.2v-2c0-2.3-0.4-4.2-1.2-5.9
			c-0.8-1.7-1.9-2.9-3.4-3.8c-1.5-0.9-3.2-1.4-5.3-1.4c-1.6,0-3.2,0.3-4.6,0.8c-1.4,0.5-2.7,1.3-3.7,2.2c-1.1,1-1.9,2.1-2.5,3.5
			c-0.6,1.4-0.9,2.9-0.9,4.6c0,1.7,0.3,3.2,0.9,4.6c0.6,1.4,1.4,2.5,2.5,3.5c1.1,1,2.3,1.7,3.7,2.2c1.4,0.5,3,0.8,4.6,0.8
			c1.1,0,2.3-0.2,3.4-0.5c1.1-0.3,2.1-0.8,3.1-1.4c1-0.6,1.8-1.4,2.5-2.3L561.3,180.4L561.3,180.4z M551.7,174.4
			c0.1-0.7,0.3-1.3,0.6-2c0.4-0.6,0.9-1.1,1.5-1.5c0.7-0.4,1.5-0.6,2.4-0.6c0.8,0,1.5,0.2,2.1,0.6c0.6,0.4,1.1,0.8,1.4,1.4
			c0.3,0.6,0.5,1.3,0.5,2H551.7L551.7,174.4z M583.1,187.4h6.8v-30.8h-6.8V187.4L583.1,187.4z M593.9,187.4h6.5v-10.5
			c0-0.7,0-1.4,0.1-2c0.1-0.6,0.3-1.2,0.5-1.7c0.3-0.5,0.7-0.9,1.2-1.2c0.5-0.3,1.2-0.5,2-0.5c0.8,0,1.5,0.2,1.9,0.5
			c0.5,0.3,0.8,0.8,1,1.3c0.2,0.6,0.3,1.2,0.4,1.8c0.1,0.6,0.1,1.3,0.1,1.9v10.4h6.5v-11.7c0-1.4-0.1-2.7-0.3-4
			c-0.2-1.2-0.6-2.3-1.1-3.2c-0.6-0.9-1.4-1.6-2.4-2.1c-1-0.5-2.4-0.8-4-0.8c-1.1,0-2,0.2-2.8,0.5c-0.8,0.3-1.5,0.7-2.1,1.3
			c-0.6,0.5-1,1.1-1.3,1.6h-0.1v-2.9h-6.3V187.4L593.9,187.4z M636.1,168.5c-0.7-0.7-1.5-1.2-2.3-1.7c-0.9-0.4-1.7-0.7-2.6-0.9
			c-0.9-0.2-1.8-0.3-2.6-0.3c-1.6,0-3.2,0.3-4.6,0.8c-1.4,0.5-2.7,1.3-3.7,2.2c-1.1,1-1.9,2.1-2.5,3.5c-0.6,1.4-0.9,2.9-0.9,4.6
			c0,1.7,0.3,3.2,0.9,4.6c0.6,1.4,1.4,2.5,2.5,3.5c1.1,1,2.3,1.7,3.7,2.2c1.4,0.5,3,0.8,4.6,0.8c0.8,0,1.7-0.1,2.6-0.3
			c0.9-0.2,1.8-0.5,2.6-0.9c0.8-0.4,1.6-1,2.3-1.7l-4.3-4.5c-0.2,0.3-0.5,0.6-0.8,0.8c-0.3,0.2-0.7,0.4-1.1,0.6
			c-0.4,0.1-0.8,0.2-1.3,0.2c-1.1,0-2-0.2-2.8-0.7c-0.8-0.5-1.4-1.1-1.8-1.9c-0.4-0.8-0.6-1.7-0.6-2.8c0-1.1,0.2-2,0.6-2.8
			c0.4-0.8,1-1.4,1.8-1.9c0.8-0.5,1.7-0.7,2.8-0.7c0.7,0,1.3,0.2,1.9,0.5c0.6,0.3,1,0.7,1.4,1.1L636.1,168.5L636.1,168.5z
			 M636.3,176.8c0,1.7,0.3,3.2,0.9,4.6c0.6,1.4,1.4,2.5,2.5,3.5c1.1,1,2.3,1.7,3.7,2.2c1.4,0.5,3,0.8,4.6,0.8c1.6,0,3.2-0.3,4.6-0.8
			c1.4-0.5,2.7-1.3,3.7-2.2c1.1-1,1.9-2.1,2.5-3.5c0.6-1.4,0.9-2.9,0.9-4.6c0-1.7-0.3-3.2-0.9-4.6c-0.6-1.4-1.4-2.5-2.5-3.5
			c-1.1-1-2.3-1.7-3.7-2.2c-1.4-0.5-3-0.8-4.6-0.8c-1.6,0-3.2,0.3-4.6,0.8c-1.4,0.5-2.7,1.3-3.7,2.2c-1.1,1-1.9,2.1-2.5,3.5
			C636.6,173.6,636.3,175.1,636.3,176.8L636.3,176.8z M642.8,176.8c0-1.1,0.2-2,0.6-2.8c0.4-0.8,1-1.4,1.8-1.9
			c0.8-0.5,1.7-0.7,2.8-0.7c1.1,0,2,0.2,2.8,0.7c0.8,0.5,1.4,1.1,1.8,1.9c0.4,0.8,0.6,1.7,0.6,2.8c0,1.1-0.2,2-0.6,2.8
			c-0.4,0.8-1,1.4-1.8,1.9c-0.8,0.4-1.7,0.7-2.8,0.7c-1.1,0-2-0.2-2.8-0.7c-0.8-0.5-1.4-1.1-1.8-1.9
			C643,178.8,642.8,177.9,642.8,176.8L642.8,176.8z M662.3,187.4h6.5v-8.8c0-1.1,0-2,0.2-2.9c0.1-0.9,0.4-1.6,0.7-2.2
			c0.4-0.6,0.9-1.1,1.7-1.5c0.7-0.3,1.7-0.5,3-0.5c0.5,0,1,0,1.4,0.1c0.5,0.1,0.9,0.2,1.4,0.3v-6c-0.3-0.1-0.7-0.1-1-0.2
			c-0.4,0-0.8,0-1.1,0c-1,0-1.8,0.2-2.5,0.4c-0.7,0.3-1.4,0.7-2,1.3c-0.6,0.6-1.1,1.3-1.6,2.2h-0.1v-3.4h-6.5V187.4L662.3,187.4z
			 M679.2,197.3h6.5v-12.2h0.1c0.5,0.7,1.1,1.2,1.8,1.6c0.7,0.4,1.5,0.7,2.3,0.9c0.8,0.2,1.7,0.3,2.6,0.3c1.2,0,2.3-0.2,3.3-0.6
			c1-0.4,1.9-1,2.7-1.7c0.8-0.7,1.5-1.5,2-2.5c0.5-1,1-2,1.2-3.1c0.3-1.1,0.4-2.3,0.4-3.4c0-1.6-0.3-3.1-0.7-4.4
			c-0.5-1.3-1.2-2.5-2.1-3.5c-0.9-1-2-1.7-3.3-2.3c-1.3-0.5-2.7-0.8-4.3-0.8c-0.7,0-1.5,0.1-2.1,0.3c-0.7,0.2-1.3,0.5-1.9,0.8
			c-0.6,0.3-1.1,0.7-1.5,1.1c-0.4,0.4-0.8,0.8-1,1.2h-0.1v-2.8h-6V197.3L679.2,197.3z M685.2,176.8c0-1.1,0.2-2,0.6-2.8
			c0.4-0.8,1-1.4,1.8-1.9c0.8-0.5,1.7-0.7,2.8-0.7c1.1,0,2,0.2,2.8,0.7c0.8,0.5,1.4,1.1,1.8,1.9c0.4,0.8,0.6,1.7,0.6,2.8
			c0,1.1-0.2,2-0.6,2.8c-0.4,0.8-1,1.4-1.8,1.9c-0.8,0.4-1.7,0.7-2.8,0.7c-1.1,0-2-0.2-2.8-0.7c-0.8-0.5-1.4-1.1-1.8-1.9
			C685.4,178.8,685.2,177.9,685.2,176.8L685.2,176.8z M703.9,176.8c0,1.7,0.3,3.2,0.9,4.6c0.6,1.4,1.4,2.5,2.5,3.5
			c1.1,1,2.3,1.7,3.7,2.2c1.4,0.5,3,0.8,4.6,0.8c1.6,0,3.2-0.3,4.6-0.8c1.4-0.5,2.7-1.3,3.7-2.2c1.1-1,1.9-2.1,2.5-3.5
			c0.6-1.4,0.9-2.9,0.9-4.6c0-1.7-0.3-3.2-0.9-4.6c-0.6-1.4-1.4-2.5-2.5-3.5c-1.1-1-2.3-1.7-3.7-2.2c-1.4-0.5-3-0.8-4.6-0.8
			c-1.6,0-3.2,0.3-4.6,0.8c-1.4,0.5-2.7,1.3-3.7,2.2c-1.1,1-1.9,2.1-2.5,3.5C704.2,173.6,703.9,175.1,703.9,176.8L703.9,176.8z
			 M710.4,176.8c0-1.1,0.2-2,0.6-2.8c0.4-0.8,1-1.4,1.8-1.9c0.8-0.5,1.7-0.7,2.8-0.7c1.1,0,2,0.2,2.8,0.7c0.8,0.5,1.4,1.1,1.8,1.9
			c0.4,0.8,0.6,1.7,0.6,2.8c0,1.1-0.2,2-0.6,2.8c-0.4,0.8-1,1.4-1.8,1.9c-0.8,0.4-1.7,0.7-2.8,0.7c-1.1,0-2-0.2-2.8-0.7
			c-0.8-0.5-1.4-1.1-1.8-1.9C710.6,178.8,710.4,177.9,710.4,176.8L710.4,176.8z M729.8,187.4h6.5v-8.8c0-1.1,0.1-2,0.2-2.9
			c0.1-0.9,0.4-1.6,0.7-2.2c0.4-0.6,0.9-1.1,1.7-1.5c0.7-0.3,1.7-0.5,3-0.5c0.5,0,1,0,1.4,0.1c0.5,0.1,0.9,0.2,1.4,0.3v-6
			c-0.3-0.1-0.7-0.1-1-0.2c-0.4,0-0.8,0-1.1,0c-1,0-1.8,0.2-2.5,0.4c-0.7,0.3-1.4,0.7-2,1.3c-0.6,0.6-1.1,1.3-1.6,2.2h-0.1v-3.4
			h-6.5V187.4L729.8,187.4z M759.4,187.4h6v-10.8c0-1.8-0.1-3.3-0.4-4.7c-0.3-1.4-0.8-2.5-1.5-3.4c-0.7-0.9-1.7-1.6-3-2.1
			c-1.3-0.5-2.8-0.7-4.7-0.7c-1.2,0-2.3,0.1-3.4,0.4c-1.1,0.3-2.2,0.6-3.2,1.1c-1,0.5-1.9,1.1-2.7,1.9l3.5,3.6
			c0.7-0.8,1.5-1.4,2.4-1.9c0.9-0.4,1.9-0.7,2.9-0.7c0.8,0,1.5,0.2,2.1,0.5c0.6,0.3,1.1,0.7,1.5,1.3c0.4,0.6,0.6,1.2,0.6,2
			c-0.9,0-1.9,0-3,0c-1,0-2.1,0.1-3.2,0.3c-1.1,0.1-2.1,0.4-3.1,0.7c-1,0.3-1.9,0.7-2.6,1.3c-0.8,0.5-1.4,1.2-1.8,2.1
			c-0.4,0.9-0.7,1.9-0.7,3.1c0,1.1,0.2,2,0.6,2.8c0.4,0.8,1,1.5,1.7,2c0.7,0.6,1.5,1,2.4,1.2c0.9,0.3,1.9,0.4,2.9,0.4
			c0.9,0,1.8-0.1,2.6-0.3c0.8-0.2,1.6-0.6,2.3-1c0.7-0.5,1.3-1.1,1.8-1.8h0.1V187.4L759.4,187.4z M759.4,178.1v1.4
			c0,0.7-0.1,1.2-0.4,1.7c-0.3,0.5-0.6,0.9-1.1,1.2c-0.5,0.3-1,0.6-1.6,0.7c-0.6,0.2-1.2,0.3-1.9,0.3c-0.5,0-1-0.1-1.4-0.2
			c-0.5-0.2-0.9-0.4-1.2-0.8c-0.3-0.3-0.5-0.8-0.5-1.3c0-0.6,0.2-1,0.5-1.4c0.3-0.4,0.7-0.7,1.2-0.9c0.5-0.2,1-0.4,1.6-0.5
			c0.6-0.1,1.1-0.2,1.7-0.2c0.5,0,1-0.1,1.4,0H759.4L759.4,178.1z M790.4,154.5h-6.5v14h-0.1c-0.5-0.7-1.1-1.2-1.8-1.6
			c-0.7-0.4-1.5-0.7-2.3-0.9c-0.8-0.2-1.7-0.3-2.6-0.3c-1.2,0-2.3,0.2-3.3,0.6c-1,0.4-1.9,1-2.7,1.7c-0.8,0.7-1.4,1.5-2,2.5
			c-0.5,1-1,2-1.2,3.1c-0.3,1.1-0.4,2.3-0.4,3.4c0,1.6,0.3,3.1,0.7,4.4c0.5,1.3,1.2,2.5,2.1,3.5c0.9,1,2,1.7,3.3,2.3
			c1.3,0.5,2.7,0.8,4.3,0.8c0.7,0,1.5-0.1,2.1-0.3c0.7-0.2,1.3-0.5,1.9-0.8c0.6-0.3,1.1-0.7,1.5-1.1c0.4-0.4,0.8-0.8,1-1.2h0.1v2.8
			h6V154.5L790.4,154.5z M784.3,176.8c0,1.1-0.2,2-0.6,2.8c-0.4,0.8-1,1.4-1.8,1.9c-0.8,0.4-1.7,0.7-2.8,0.7c-1.1,0-2-0.2-2.8-0.7
			c-0.8-0.5-1.4-1.1-1.8-1.9c-0.4-0.8-0.6-1.7-0.6-2.8c0-1.1,0.2-2,0.6-2.8c0.4-0.8,1-1.4,1.8-1.9c0.8-0.5,1.7-0.7,2.8-0.7
			c1.1,0,2,0.2,2.8,0.7c0.8,0.5,1.4,1.1,1.8,1.9C784.1,174.8,784.3,175.8,784.3,176.8L784.3,176.8z M793.4,176.8
			c0,1.7,0.3,3.2,0.9,4.6c0.6,1.4,1.4,2.5,2.5,3.5c1.1,1,2.3,1.7,3.7,2.2c1.4,0.5,3,0.8,4.6,0.8c1.6,0,3.2-0.3,4.6-0.8
			c1.4-0.5,2.7-1.3,3.7-2.2c1.1-1,1.9-2.1,2.5-3.5c0.6-1.4,0.9-2.9,0.9-4.6c0-1.7-0.3-3.2-0.9-4.6c-0.6-1.4-1.4-2.5-2.5-3.5
			c-1.1-1-2.3-1.7-3.7-2.2c-1.4-0.5-3-0.8-4.6-0.8c-1.6,0-3.2,0.3-4.6,0.8c-1.4,0.5-2.7,1.3-3.7,2.2c-1.1,1-1.9,2.1-2.5,3.5
			C793.7,173.6,793.4,175.1,793.4,176.8L793.4,176.8z M799.9,176.8c0-1.1,0.2-2,0.6-2.8c0.4-0.8,1-1.4,1.8-1.9
			c0.8-0.5,1.7-0.7,2.8-0.7c1.1,0,2,0.2,2.8,0.7c0.8,0.5,1.4,1.1,1.8,1.9c0.4,0.8,0.6,1.7,0.6,2.8c0,1.1-0.2,2-0.6,2.8
			c-0.4,0.8-1,1.4-1.8,1.9c-0.8,0.4-1.7,0.7-2.8,0.7c-1.1,0-2-0.2-2.8-0.7c-0.8-0.5-1.4-1.1-1.8-1.9
			C800.1,178.8,799.9,177.9,799.9,176.8L799.9,176.8z M819.4,187.4h6.5v-8.8c0-1.1,0.1-2,0.2-2.9c0.1-0.9,0.4-1.6,0.7-2.2
			c0.4-0.6,0.9-1.1,1.7-1.5c0.7-0.3,1.7-0.5,3-0.5c0.5,0,0.9,0,1.4,0.1c0.5,0.1,0.9,0.2,1.4,0.3v-6c-0.3-0.1-0.7-0.1-1-0.2
			c-0.4,0-0.8,0-1.1,0c-0.9,0-1.8,0.2-2.5,0.4c-0.7,0.3-1.4,0.7-2,1.3c-0.6,0.6-1.1,1.3-1.6,2.2h-0.1v-3.4h-6.5V187.4L819.4,187.4z
			 M849,187.4h6v-10.8c0-1.8-0.1-3.3-0.4-4.7c-0.3-1.4-0.8-2.5-1.5-3.4c-0.7-0.9-1.7-1.6-3-2.1c-1.3-0.5-2.8-0.7-4.7-0.7
			c-1.2,0-2.3,0.1-3.4,0.4c-1.1,0.3-2.2,0.6-3.2,1.1c-1,0.5-1.9,1.1-2.7,1.9l3.5,3.6c0.7-0.8,1.5-1.4,2.4-1.9
			c0.9-0.4,1.9-0.7,2.9-0.7c0.8,0,1.5,0.2,2.1,0.5c0.6,0.3,1.1,0.7,1.5,1.3c0.4,0.6,0.6,1.2,0.6,2c-0.9,0-1.9,0-3,0
			c-1,0-2.1,0.1-3.2,0.3c-1.1,0.1-2.1,0.4-3.1,0.7c-1,0.3-1.9,0.7-2.6,1.3c-0.8,0.5-1.4,1.2-1.8,2.1c-0.4,0.9-0.7,1.9-0.7,3.1
			c0,1.1,0.2,2,0.6,2.8c0.4,0.8,1,1.5,1.7,2c0.7,0.6,1.5,1,2.4,1.2c0.9,0.3,1.9,0.4,2.9,0.4c0.9,0,1.8-0.1,2.6-0.3
			c0.8-0.2,1.6-0.6,2.3-1c0.7-0.5,1.3-1.1,1.8-1.8h0.1V187.4L849,187.4z M849,178.1v1.4c0,0.7-0.1,1.2-0.4,1.7
			c-0.3,0.5-0.6,0.9-1.1,1.2c-0.5,0.3-1,0.6-1.6,0.7c-0.6,0.2-1.2,0.3-1.9,0.3c-0.5,0-1-0.1-1.4-0.2c-0.5-0.2-0.9-0.4-1.2-0.8
			c-0.3-0.3-0.5-0.8-0.5-1.3c0-0.6,0.2-1,0.5-1.4c0.3-0.4,0.7-0.7,1.2-0.9c0.5-0.2,1-0.4,1.6-0.5c0.6-0.1,1.1-0.2,1.7-0.2
			c0.5,0,1-0.1,1.4,0H849z"/>
	</g>
	<g>
		<path class="st1" d="M114.7,230.2c2.2,0.4,4.6,0.5,6.9,0.5c2.5,0,4.9-0.1,7.3-0.1l40.9-158.1h30.7l10.6,4.8l-36,139.4
			c33.4-18.6,56.1-54.4,56.1-95.5c0-60.5-49-109.5-109.5-109.5c-60.5,0-109.5,49-109.5,109.5c0,21.2,6,41,16.5,57.8L57.5,67.4
			l15.6-7.1h28.7L62.3,213.2c4,2.6,8.2,4.9,12.5,7l31.9-123.3l42.7,0L114.7,230.2z"/>
		<path class="st0" d="M171.1,232.3c-13.3,5.9-27.9,9.5-43.3,10.3l-2.6,9.9c15-0.4,29.4-3.3,42.8-8.4L171.1,232.3L171.1,232.3z
			 M111.6,242.4c-13.4-1.1-26.3-4.4-38.1-9.5l-2.5,9.5c11.9,5,24.8,8.3,38.2,9.5L111.6,242.4L111.6,242.4z M59.1,225.5
			C46.4,217.9,35.2,208,26,196.4L23,208c9.5,10.8,20.8,20.1,33.5,27.3L59.1,225.5z"/>
		<path class="st2" d="M174.3,220c-13.3,7.1-28.2,11.6-44,12.8l-1.8,7.4c15.4-0.9,30.1-4.7,43.4-10.8L174.3,220L174.3,220z
			 M114.1,232.8c-13.5-0.9-26.4-4.2-38.2-9.5l-1.8,7.1c11.8,5.2,24.7,8.5,38.2,9.5L114.1,232.8L114.1,232.8z M61.6,215.7
			c-12.8-8.2-23.9-18.9-32.5-31.4l-2.3,9.1c9,11.8,20.2,21.9,32.9,29.7L61.6,215.7z"/>
		<path class="st3" d="M62.3,213.1c-12.9-8.3-23.9-19.2-32.3-32.1L59.6,66.4L73,60.2l28.8,0L62.3,213.1L62.3,213.1z M114.7,230.5
			l34.6-133.6l-40.6,0L76.5,221C88.3,226.3,101.1,229.6,114.7,230.5L114.7,230.5z M131,230.3l40.8-157.8l28.9,0l10.4,4.8
			l-36.1,139.5C161.8,224.2,146.9,228.9,131,230.3z"/>
		<path class="st4" d="M121.6,1.9c65.8,0,119.2,53.4,119.2,119.2c0,65.8-53.4,119.2-119.2,119.2C55.8,240.4,2.4,187,2.4,121.1
			C2.4,55.3,55.8,1.9,121.6,1.9L121.6,1.9z M121.6-0.5C54.5-0.5,0,54,0,121.1c0,67.2,54.5,121.6,121.6,121.6
			c67.2,0,121.6-54.5,121.6-121.6C243.3,54,188.8-0.5,121.6-0.5z"/>
	</g>
</g>
</svg>
