<?xml version="1.0" encoding="utf-8"?>
<!-- Generator: Adobe Illustrator 25.0.0, SVG Export Plug-In . SVG Version: 6.00 Build 0)  -->
<svg version="1.1" id="Camada_1" xmlns="http://www.w3.org/2000/svg" xmlns:xlink="http://www.w3.org/1999/xlink" x="0px" y="0px"
	 viewBox="0 0 236.2 72.7" style="enable-background:new 0 0 236.2 72.7;" xml:space="preserve">
<style type="text/css">
	.st0{fill:#008FC3;}
	.st1{fill:#9BD5E6;}
</style>
<g id="XMLID_708_">
	<path id="XMLID_743_" class="st0" d="M103.5,54.6c0.2,0.1,0.5,0.2,0.9,0.2c0.4,0.1,0.7,0.1,1,0.1c0.6,0,1.1-0.1,1.5-0.4
		c0.4-0.3,0.5-0.6,0.5-1c0-0.3-0.1-0.5-0.2-0.7c-0.1-0.2-0.3-0.3-0.4-0.5c-0.2-0.1-0.4-0.2-0.6-0.3c-0.2-0.1-0.5-0.2-0.7-0.2
		c-0.3-0.1-0.5-0.2-0.8-0.3c-0.3-0.1-0.5-0.2-0.7-0.4c-0.2-0.2-0.4-0.4-0.5-0.6c-0.1-0.2-0.2-0.5-0.2-0.9c0-0.6,0.2-1.1,0.7-1.5
		c0.5-0.4,1.2-0.6,2.1-0.6c0.4,0,0.8,0,1.2,0.1c0.4,0.1,0.7,0.1,0.9,0.2c-0.1,0.3-0.1,0.6-0.2,0.9c-0.2-0.1-0.5-0.1-0.8-0.2
		c-0.3-0.1-0.7-0.1-1-0.1c-0.6,0-1.1,0.1-1.3,0.3c-0.3,0.2-0.4,0.5-0.4,0.9c0,0.2,0,0.4,0.1,0.5c0.1,0.1,0.2,0.3,0.4,0.4
		c0.2,0.1,0.3,0.2,0.5,0.3c0.2,0.1,0.4,0.1,0.6,0.2c0.3,0.1,0.6,0.2,0.8,0.3c0.3,0.1,0.5,0.3,0.8,0.4c0.2,0.2,0.4,0.4,0.6,0.7
		c0.2,0.3,0.2,0.6,0.2,1c0,0.4-0.1,0.7-0.2,1c-0.1,0.3-0.4,0.6-0.6,0.8c-0.3,0.2-0.6,0.4-1,0.5c-0.4,0.1-0.8,0.2-1.2,0.2
		c-0.5,0-0.9,0-1.3-0.1c-0.4-0.1-0.7-0.1-0.9-0.2C103.3,55.2,103.4,54.9,103.5,54.6z M113.9,55.8c-0.6,0-1.1-0.1-1.6-0.3
		c-0.4-0.2-0.8-0.5-1.1-0.9c-0.3-0.4-0.5-0.8-0.7-1.3c-0.1-0.5-0.2-1.1-0.2-1.6c0-0.6,0.1-1.1,0.2-1.6c0.1-0.5,0.4-0.9,0.7-1.3
		c0.3-0.4,0.7-0.7,1.1-0.9c0.4-0.2,1-0.3,1.6-0.3c0.6,0,1.1,0.1,1.5,0.3c0.4,0.2,0.8,0.5,1.1,0.9c0.3,0.4,0.5,0.8,0.7,1.3
		c0.1,0.5,0.2,1.1,0.2,1.6c0,0.6-0.1,1.1-0.2,1.6c-0.2,0.5-0.4,0.9-0.7,1.3c-0.3,0.4-0.7,0.7-1.1,0.9
		C115,55.7,114.4,55.8,113.9,55.8z M113.9,54.9c0.8,0,1.4-0.3,1.9-0.9c0.4-0.6,0.6-1.4,0.6-2.4c0-1-0.2-1.8-0.6-2.4
		c-0.4-0.6-1-0.9-1.9-0.9c-0.8,0-1.4,0.3-1.9,0.9c-0.4,0.6-0.6,1.4-0.6,2.4c0,1,0.2,1.8,0.6,2.4C112.4,54.7,113,54.9,113.9,54.9z
		 M119.7,47.7c0.1,0,0.2,0,0.2,0c0.1,0,0.2,0,0.2,0c0.1,0,0.2,0,0.2,0c0.1,0,0.1,0,0.2,0c0,0.2,0,0.4,0,0.7c0,0.3,0,0.5,0,0.7
		c0.2-0.4,0.5-0.7,0.9-1c0.4-0.3,0.9-0.4,1.5-0.4c0.1,0,0.1,0,0.2,0c0.1,0,0.1,0,0.2,0c0,0.2,0,0.3,0,0.5c0,0.2,0,0.3,0,0.5
		c-0.1,0-0.1,0-0.2,0c0,0-0.1,0-0.1,0c-0.7,0-1.3,0.2-1.7,0.7c-0.4,0.4-0.6,1.2-0.6,2.2v4.1c-0.1,0-0.1,0-0.3,0c-0.1,0-0.2,0-0.3,0
		c-0.1,0-0.1,0-0.2,0c-0.1,0-0.2,0-0.3,0V47.7z M125.1,47.7c0.1,0,0.2,0,0.2,0c0.1,0,0.2,0,0.2,0c0.1,0,0.2,0,0.2,0
		c0.1,0,0.1,0,0.2,0c0,0.2,0,0.4,0,0.7c0,0.3,0,0.5,0,0.7c0.2-0.4,0.5-0.7,0.9-1c0.4-0.3,0.9-0.4,1.5-0.4c0.1,0,0.1,0,0.2,0
		c0.1,0,0.1,0,0.2,0c0,0.2,0,0.3,0,0.5c0,0.2,0,0.3,0,0.5c-0.1,0-0.1,0-0.2,0s-0.1,0-0.1,0c-0.7,0-1.3,0.2-1.7,0.7
		c-0.4,0.4-0.6,1.2-0.6,2.2v4.1c-0.1,0-0.1,0-0.3,0c-0.1,0-0.2,0-0.3,0c-0.1,0-0.1,0-0.2,0c-0.1,0-0.2,0-0.3,0V47.7z M131.1,48.6h-1
		c0-0.1,0-0.1,0-0.2c0-0.1,0-0.2,0-0.2s0-0.2,0-0.2c0-0.1,0-0.1,0-0.2h2v7.9c-0.1,0-0.1,0-0.3,0c-0.1,0-0.2,0-0.3,0
		c-0.1,0-0.1,0-0.2,0c-0.1,0-0.2,0-0.3,0V48.6z M130.5,45.8c0-0.1,0-0.2,0-0.3c0-0.1,0-0.2,0-0.3c0-0.1,0-0.2,0-0.3
		c0-0.1,0-0.2,0-0.3c0.1,0,0.2,0,0.3,0c0.1,0,0.2,0,0.3,0c0.1,0,0.2,0,0.3,0c0.1,0,0.2,0,0.3,0c0,0.1,0,0.2,0,0.3c0,0.1,0,0.2,0,0.3
		c0,0.1,0,0.2,0,0.3c0,0.1,0,0.3,0,0.3c-0.1,0-0.2,0-0.3,0c-0.1,0-0.2,0-0.3,0c-0.1,0-0.2,0-0.3,0C130.7,45.8,130.6,45.8,130.5,45.8
		z M134.8,47.7c0.1,0,0.2,0,0.2,0c0.1,0,0.2,0,0.2,0c0.1,0,0.2,0,0.2,0c0.1,0,0.1,0,0.2,0c0,0.2,0,0.4,0,0.7c0,0.3,0,0.5,0,0.7
		c0.2-0.4,0.5-0.7,0.9-1c0.4-0.3,0.9-0.4,1.5-0.4c0.1,0,0.1,0,0.2,0s0.1,0,0.2,0c0,0.2,0,0.3,0,0.5c0,0.2,0,0.3,0,0.5
		c-0.1,0-0.1,0-0.2,0c0,0-0.1,0-0.1,0c-0.7,0-1.3,0.2-1.7,0.7c-0.4,0.4-0.6,1.2-0.6,2.2v4.1c-0.1,0-0.1,0-0.3,0c-0.1,0-0.2,0-0.3,0
		c-0.1,0-0.1,0-0.2,0c-0.1,0-0.2,0-0.3,0V47.7z M144.8,51.8c0,1.1,0.2,1.8,0.7,2.3c0.5,0.5,1.2,0.7,2.2,0.7c0.4,0,0.8,0,1.1-0.1
		c0.3-0.1,0.7-0.2,1-0.3c0.1,0.1,0.1,0.3,0.1,0.4c0,0.2,0.1,0.3,0.1,0.5c-0.3,0.1-0.7,0.2-1.1,0.3c-0.4,0.1-0.8,0.1-1.3,0.1
		c-0.7,0-1.3-0.1-1.8-0.3c-0.5-0.2-0.9-0.5-1.2-0.8c-0.3-0.4-0.5-0.8-0.7-1.3c-0.2-0.5-0.2-1.1-0.2-1.7c0-0.6,0.1-1.1,0.2-1.6
		c0.1-0.5,0.4-1,0.6-1.3c0.3-0.4,0.6-0.7,1.1-0.9c0.4-0.2,1-0.3,1.6-0.3c0.5,0,1,0.1,1.4,0.3c0.4,0.2,0.7,0.4,1,0.7
		c0.3,0.3,0.5,0.7,0.6,1.1c0.1,0.4,0.2,0.9,0.2,1.4c0,0.1,0,0.2,0,0.4c0,0.1,0,0.3,0,0.4H144.8z M149.5,51c0-0.3,0-0.6-0.1-0.9
		c-0.1-0.3-0.2-0.6-0.4-0.8c-0.2-0.2-0.4-0.4-0.7-0.6c-0.3-0.1-0.6-0.2-1-0.2c-0.7,0-1.3,0.2-1.7,0.7c-0.4,0.4-0.6,1.1-0.7,1.9
		H149.5z M147.2,46.4c-0.2,0-0.4,0-0.6,0c-0.2,0-0.3,0-0.5,0l1.8-2c0.1,0,0.2,0,0.4,0c0.1,0,0.2,0,0.4,0c0.1,0,0.2,0,0.4,0
		c0.1,0,0.2,0,0.4,0L147.2,46.4z M156.6,47.7c0.1,0,0.1,0,0.3,0c0.1,0,0.2,0,0.2,0c0.1,0,0.1,0,0.3,0c0.1,0,0.2,0,0.3,0v4.5
		c0,0.6,0.1,1,0.2,1.4c0.1,0.4,0.3,0.6,0.5,0.8c0.2,0.2,0.5,0.3,0.8,0.4c0.3,0.1,0.7,0.1,1.1,0.1c0.3,0,0.6,0,0.9-0.1
		c0.3,0,0.5-0.1,0.7-0.1v-7c0.1,0,0.2,0,0.3,0c0.1,0,0.2,0,0.2,0c0.1,0,0.1,0,0.3,0c0.1,0,0.2,0,0.3,0v7.7c-0.4,0.1-0.8,0.2-1.3,0.3
		c-0.5,0.1-1,0.1-1.5,0.1c-0.5,0-0.9,0-1.4-0.1c-0.4-0.1-0.8-0.3-1.1-0.5c-0.3-0.3-0.6-0.6-0.8-1.1c-0.2-0.5-0.3-1.1-0.3-1.8V47.7z
		 M165.6,47.7c0.1,0,0.2,0,0.2,0c0.1,0,0.2,0,0.2,0c0.1,0,0.2,0,0.2,0c0.1,0,0.2,0,0.2,0c0,0.2,0,0.4,0,0.7c0,0.3,0,0.5,0,0.7
		c0.1-0.2,0.2-0.4,0.4-0.6c0.1-0.2,0.3-0.4,0.5-0.5c0.2-0.1,0.4-0.3,0.7-0.3c0.3-0.1,0.5-0.1,0.9-0.1c0.3,0,0.6,0,0.8,0.1
		s0.4,0.2,0.6,0.3c0.2,0.1,0.3,0.3,0.4,0.5c0.1,0.2,0.2,0.4,0.3,0.6c0.1-0.2,0.2-0.3,0.4-0.5c0.1-0.2,0.3-0.3,0.5-0.5
		c0.2-0.1,0.4-0.3,0.6-0.3c0.2-0.1,0.5-0.1,0.8-0.1c0.9,0,1.6,0.3,2,0.8c0.4,0.5,0.6,1.3,0.6,2.3v5.1c-0.1,0-0.1,0-0.3,0
		c-0.1,0-0.2,0-0.3,0c-0.1,0-0.1,0-0.2,0c-0.1,0-0.2,0-0.3,0V51c0-0.8-0.1-1.5-0.4-1.9c-0.3-0.4-0.7-0.6-1.2-0.6
		c-0.3,0-0.6,0.1-0.9,0.2c-0.2,0.1-0.5,0.3-0.6,0.5c-0.2,0.2-0.3,0.5-0.4,0.8c-0.1,0.3-0.1,0.6-0.1,1v4.6c-0.1,0-0.1,0-0.3,0
		c-0.1,0-0.2,0-0.3,0c-0.1,0-0.1,0-0.2,0c-0.1,0-0.2,0-0.3,0v-4.9c0-0.8-0.1-1.4-0.4-1.8c-0.3-0.4-0.6-0.6-1.1-0.6
		c-0.3,0-0.6,0.1-0.9,0.2c-0.3,0.2-0.5,0.4-0.7,0.7c-0.2,0.3-0.3,0.6-0.5,1c-0.1,0.4-0.2,0.8-0.2,1.3v4c-0.1,0-0.1,0-0.3,0
		c-0.1,0-0.2,0-0.3,0c-0.1,0-0.1,0-0.3,0c-0.1,0-0.2,0-0.3,0V47.7z M182.9,50.4c0-0.7-0.2-1.2-0.5-1.5c-0.3-0.3-0.8-0.5-1.4-0.5
		c-0.4,0-0.8,0-1.1,0.1c-0.3,0.1-0.6,0.1-0.9,0.2c-0.1-0.1-0.1-0.2-0.1-0.4c0-0.2-0.1-0.3-0.1-0.5c0.3-0.1,0.6-0.2,1-0.2
		c0.4-0.1,0.8-0.1,1.2-0.1c1,0,1.8,0.2,2.2,0.7c0.5,0.4,0.7,1.1,0.7,2.1v5.2c-0.4,0.1-0.8,0.1-1.3,0.2c-0.5,0.1-1,0.1-1.5,0.1
		c-1,0-1.7-0.2-2.3-0.6c-0.6-0.4-0.8-1-0.8-1.9c0-0.4,0.1-0.8,0.2-1.1c0.2-0.3,0.4-0.6,0.7-0.8c0.3-0.2,0.6-0.4,1-0.5
		c0.4-0.1,0.8-0.2,1.3-0.2c0.4,0,0.7,0,1,0c0.3,0,0.5,0.1,0.7,0.1V50.4z M182.9,51.8c-0.2,0-0.4,0-0.7-0.1c-0.3,0-0.5,0-0.8,0
		c-0.8,0-1.4,0.1-1.8,0.4c-0.4,0.3-0.6,0.7-0.6,1.2c0,0.3,0.1,0.6,0.2,0.8c0.1,0.2,0.3,0.4,0.5,0.5c0.2,0.1,0.4,0.2,0.7,0.2
		c0.2,0,0.5,0.1,0.7,0.1c0.3,0,0.6,0,0.9,0c0.3,0,0.6-0.1,0.8-0.1V51.8z M124.2,67.1c0.1,0.1,0.1,0.2,0.1,0.4c0,0.2,0.1,0.3,0.1,0.4
		c-0.3,0.1-0.6,0.2-0.9,0.2c-0.3,0.1-0.7,0.1-1.1,0.1c-1.3,0-2.3-0.4-3-1.1c-0.7-0.7-1-1.7-1-3.1c0-0.6,0.1-1.1,0.2-1.6
		c0.2-0.5,0.4-0.9,0.7-1.3c0.3-0.4,0.7-0.7,1.2-0.9c0.5-0.2,1-0.3,1.7-0.3c0.4,0,0.8,0,1.1,0.1c0.4,0.1,0.6,0.1,0.8,0.2
		c0,0.1,0,0.3-0.1,0.5c0,0.2-0.1,0.3-0.1,0.4c-0.2-0.1-0.5-0.1-0.8-0.2c-0.3-0.1-0.7-0.1-1-0.1c-0.5,0-0.9,0.1-1.2,0.2
		c-0.3,0.2-0.6,0.4-0.9,0.7c-0.2,0.3-0.4,0.6-0.5,1c-0.1,0.4-0.2,0.8-0.2,1.3c0,1.1,0.3,1.9,0.8,2.5c0.5,0.5,1.3,0.8,2.2,0.8
		c0.3,0,0.6,0,0.9-0.1C123.7,67.2,123.9,67.1,124.2,67.1z M129.2,68.2c-0.6,0-1.1-0.1-1.6-0.3c-0.4-0.2-0.8-0.5-1.1-0.9
		c-0.3-0.4-0.5-0.8-0.7-1.3c-0.1-0.5-0.2-1.1-0.2-1.6c0-0.6,0.1-1.1,0.2-1.6c0.1-0.5,0.4-0.9,0.7-1.3c0.3-0.4,0.7-0.7,1.1-0.9
		c0.4-0.2,1-0.3,1.6-0.3c0.6,0,1.1,0.1,1.5,0.3c0.4,0.2,0.8,0.5,1.1,0.9c0.3,0.4,0.5,0.8,0.7,1.3c0.2,0.5,0.2,1.1,0.2,1.6
		c0,0.6-0.1,1.1-0.2,1.6c-0.1,0.5-0.4,0.9-0.7,1.3c-0.3,0.4-0.7,0.7-1.1,0.9C130.3,68.1,129.8,68.2,129.2,68.2z M129.2,67.3
		c0.8,0,1.4-0.3,1.9-0.9c0.4-0.6,0.6-1.4,0.6-2.4c0-1-0.2-1.8-0.6-2.4c-0.4-0.6-1-0.9-1.9-0.9c-0.8,0-1.4,0.3-1.9,0.9
		c-0.4,0.6-0.6,1.4-0.6,2.4c0,1,0.2,1.8,0.6,2.4C127.8,67,128.4,67.3,129.2,67.3z M135.1,60.1c0.1,0,0.2,0,0.2,0c0.1,0,0.2,0,0.2,0
		c0.1,0,0.2,0,0.2,0c0.1,0,0.1,0,0.2,0c0,0.2,0,0.4,0,0.7c0,0.3,0,0.5,0,0.7c0.1-0.2,0.2-0.4,0.4-0.6c0.2-0.2,0.4-0.4,0.6-0.5
		c0.2-0.2,0.5-0.3,0.8-0.4c0.3-0.1,0.6-0.1,0.9-0.1c0.9,0,1.6,0.3,2,0.8c0.4,0.5,0.6,1.3,0.6,2.3v5c-0.1,0-0.1,0-0.3,0
		c-0.1,0-0.2,0-0.3,0c-0.1,0-0.1,0-0.2,0c-0.1,0-0.2,0-0.3,0v-4.7c0-0.9-0.1-1.5-0.4-1.9c-0.3-0.4-0.7-0.6-1.2-0.6
		c-0.4,0-0.7,0.1-1,0.2c-0.3,0.1-0.6,0.4-0.8,0.6c-0.2,0.3-0.4,0.6-0.6,1c-0.1,0.4-0.2,0.9-0.2,1.4v3.9c-0.1,0-0.1,0-0.3,0
		c-0.1,0-0.2,0-0.3,0c-0.1,0-0.1,0-0.2,0c-0.1,0-0.2,0-0.3,0V60.1z M149.3,68c-0.2,0.1-0.5,0.1-0.8,0.2c-0.3,0-0.6,0.1-0.9,0.1
		c-0.5,0-1.1-0.1-1.6-0.2c-0.5-0.1-0.9-0.3-1.3-0.6c-0.4-0.3-0.6-0.7-0.9-1.2c-0.2-0.5-0.3-1.1-0.3-1.9c0-0.7,0.1-1.3,0.3-1.8
		c0.2-0.5,0.5-1,0.8-1.4c0.4-0.4,0.8-0.7,1.3-0.9c0.5-0.2,1.1-0.3,1.7-0.3c0.3,0,0.6,0,0.8,0c0.2,0,0.4,0,0.7,0.1
		c0.2,0,0.4,0.1,0.6,0.1c0.2,0,0.4,0.1,0.6,0.2v11.4c-0.1,0-0.1,0-0.3,0c-0.1,0-0.2,0-0.3,0c-0.1,0-0.1,0-0.3,0c-0.1,0-0.2,0-0.3,0
		V68z M149.3,61c-0.3-0.1-0.6-0.1-0.8-0.1s-0.4,0-0.7,0c-0.5,0-1,0.1-1.4,0.3c-0.4,0.2-0.7,0.4-1,0.7c-0.3,0.3-0.5,0.7-0.6,1.1
		c-0.1,0.4-0.2,0.9-0.2,1.4c0,0.5,0.1,0.9,0.2,1.3c0.1,0.4,0.3,0.7,0.6,0.9c0.3,0.2,0.6,0.4,0.9,0.5c0.3,0.1,0.7,0.2,1.2,0.2
		c0.3,0,0.7,0,1-0.1c0.3-0.1,0.6-0.1,0.8-0.2V61z M153,60.1c0.1,0,0.2,0,0.3,0c0.1,0,0.2,0,0.2,0c0.1,0,0.1,0,0.3,0
		c0.1,0,0.2,0,0.3,0v4.5c0,0.6,0.1,1,0.2,1.4c0.1,0.4,0.3,0.6,0.5,0.8c0.2,0.2,0.5,0.3,0.8,0.4c0.3,0.1,0.7,0.1,1.1,0.1
		c0.3,0,0.6,0,0.9-0.1c0.3,0,0.5-0.1,0.7-0.1v-7c0.1,0,0.2,0,0.3,0c0.1,0,0.2,0,0.2,0c0.1,0,0.1,0,0.3,0c0.1,0,0.2,0,0.3,0v7.7
		c-0.4,0.1-0.8,0.2-1.3,0.3c-0.5,0.1-1,0.1-1.5,0.1c-0.5,0-0.9,0-1.4-0.1c-0.4-0.1-0.8-0.3-1.1-0.5c-0.3-0.3-0.6-0.6-0.8-1.1
		c-0.2-0.5-0.3-1.1-0.3-1.8V60.1z M162.5,61h-1c0-0.1,0-0.1,0-0.2c0-0.1,0-0.1,0-0.2c0-0.1,0-0.2,0-0.3c0-0.1,0-0.1,0-0.2h2v7.9
		c-0.1,0-0.1,0-0.3,0c-0.1,0-0.2,0-0.3,0c-0.1,0-0.1,0-0.2,0c-0.1,0-0.2,0-0.3,0V61z M162,58.2c0-0.1,0-0.2,0-0.3c0-0.1,0-0.3,0-0.3
		c0-0.1,0-0.2,0-0.3c0-0.1,0-0.2,0-0.3c0.1,0,0.2,0,0.3,0c0.1,0,0.2,0,0.3,0c0.1,0,0.2,0,0.3,0c0.1,0,0.2,0,0.3,0c0,0.1,0,0.2,0,0.3
		c0,0.1,0,0.2,0,0.3c0,0.1,0,0.2,0,0.3c0,0.1,0,0.2,0,0.3c-0.1,0-0.2,0-0.3,0c-0.1,0-0.2,0-0.3,0c-0.1,0-0.2,0-0.3,0
		C162.2,58.2,162,58.2,162,58.2z M166,67c0.2,0.1,0.5,0.2,0.9,0.2c0.4,0.1,0.7,0.1,1,0.1c0.6,0,1.1-0.1,1.5-0.4
		c0.4-0.3,0.5-0.6,0.5-1c0-0.3-0.1-0.5-0.2-0.7c-0.1-0.2-0.3-0.3-0.4-0.5c-0.2-0.1-0.4-0.2-0.6-0.3c-0.2-0.1-0.5-0.2-0.7-0.2
		c-0.3-0.1-0.5-0.2-0.8-0.3c-0.3-0.1-0.5-0.2-0.7-0.4c-0.2-0.2-0.4-0.4-0.5-0.6c-0.1-0.2-0.2-0.5-0.2-0.9c0-0.6,0.2-1.1,0.7-1.5
		c0.5-0.4,1.2-0.6,2.1-0.6c0.4,0,0.8,0,1.2,0.1c0.4,0.1,0.7,0.2,0.9,0.2c-0.1,0.3-0.1,0.6-0.2,0.9c-0.2-0.1-0.5-0.1-0.8-0.2
		c-0.3-0.1-0.7-0.1-1.1-0.1c-0.6,0-1.1,0.1-1.3,0.3c-0.3,0.2-0.4,0.5-0.4,0.9c0,0.2,0,0.4,0.1,0.5c0.1,0.1,0.2,0.3,0.4,0.4
		c0.1,0.1,0.3,0.2,0.5,0.3c0.2,0.1,0.4,0.1,0.6,0.2c0.3,0.1,0.6,0.2,0.8,0.3c0.3,0.1,0.5,0.3,0.8,0.4c0.2,0.2,0.4,0.4,0.6,0.7
		c0.2,0.3,0.2,0.6,0.2,1c0,0.4-0.1,0.7-0.2,1c-0.1,0.3-0.4,0.6-0.6,0.8c-0.3,0.2-0.6,0.4-1,0.5c-0.4,0.1-0.8,0.2-1.2,0.2
		c-0.5,0-0.9,0-1.3-0.1c-0.4-0.1-0.7-0.1-0.9-0.2C165.8,67.6,165.9,67.3,166,67z M173.6,61h-1.4c0-0.1,0-0.1,0-0.2
		c0-0.1,0-0.2,0-0.2c0-0.1,0-0.2,0-0.2c0-0.1,0-0.1,0-0.2h1.4v-1.5l1-0.9h0.1v2.4h2.1c0,0.1,0,0.1,0,0.2c0,0.1,0,0.2,0,0.2
		c0,0.1,0,0.2,0,0.2c0,0.1,0,0.2,0,0.2h-2.1v5.2c0,0.3,0,0.5,0.1,0.6c0.1,0.2,0.2,0.3,0.3,0.3c0.1,0.1,0.2,0.1,0.4,0.2
		c0.1,0,0.3,0,0.4,0c0.4,0,0.7,0,0.9-0.1c0.1,0.3,0.1,0.6,0.2,0.9c-0.4,0.1-0.8,0.2-1.3,0.2c-0.6,0-1.1-0.2-1.4-0.5
		c-0.4-0.3-0.6-0.8-0.6-1.5V61z M182.9,62.8c0-0.7-0.2-1.2-0.5-1.5c-0.3-0.3-0.8-0.5-1.4-0.5c-0.4,0-0.8,0-1.1,0.1
		c-0.3,0.1-0.6,0.1-0.9,0.2c-0.1-0.1-0.1-0.2-0.1-0.4c0-0.2-0.1-0.3-0.1-0.5c0.3-0.1,0.6-0.2,1-0.2c0.4-0.1,0.8-0.1,1.2-0.1
		c1,0,1.8,0.2,2.2,0.7c0.5,0.4,0.7,1.1,0.7,2.1v5.2c-0.4,0.1-0.8,0.1-1.3,0.2c-0.5,0.1-1,0.1-1.5,0.1c-1,0-1.7-0.2-2.3-0.6
		c-0.6-0.4-0.8-1-0.8-1.9c0-0.4,0.1-0.8,0.2-1.1c0.2-0.3,0.4-0.6,0.7-0.8c0.3-0.2,0.6-0.4,1-0.5c0.4-0.1,0.8-0.2,1.3-0.2
		c0.4,0,0.7,0,1,0c0.3,0,0.5,0,0.7,0.1V62.8z M182.9,64.2c-0.2,0-0.4,0-0.7-0.1c-0.3,0-0.5,0-0.8,0c-0.8,0-1.4,0.1-1.8,0.4
		c-0.4,0.3-0.6,0.7-0.6,1.2c0,0.3,0.1,0.6,0.2,0.8c0.1,0.2,0.3,0.4,0.5,0.5c0.2,0.1,0.4,0.2,0.7,0.2c0.2,0,0.5,0.1,0.7,0.1
		c0.3,0,0.6,0,0.9,0c0.3,0,0.6-0.1,0.8-0.1V64.2z M186.1,68.1c0-0.2,0-0.4,0-0.7c0-0.2,0-0.5,0-0.7c0.2,0,0.4,0,0.7,0
		c0.2,0,0.5,0,0.7,0c0,0.2,0,0.4,0,0.7c0,0.2,0,0.5,0,0.7c-0.2,0-0.4,0-0.7,0C186.5,68.1,186.3,68.1,186.1,68.1z"/>
	<g id="XMLID_84_">
		<path id="XMLID_89_" class="st0" d="M87.1,16c0,0.8-0.3,3.4-0.3,3.4h-2.9c-3.9,0-6,3.7-6,7.7v13.5c0,0-2.8,0.3-3.7,0.3
			c-0.9,0-3.7-0.3-3.7-0.3V12.9c0,0,2.8-0.3,3.7-0.3c0.9,0,3.7,0.3,3.7,0.3v3.4c0.8-1.4,3.5-3.7,6.6-3.7h2.4
			C86.8,12.6,87.1,15.1,87.1,16z M67.5,12.6h-2.4c-3.1,0-5.8,2.4-6.6,3.7v-3.4c0,0-2.8-0.3-3.7-0.3c-0.9,0-3.7,0.3-3.7,0.3v27.7
			c0,0,2.8,0.3,3.7,0.3c0.9,0,3.7-0.3,3.7-0.3V27.1c0-4.1,2.1-7.7,6-7.7h2.9c0,0,0.3-2.5,0.3-3.4C67.8,15.1,67.5,12.6,67.5,12.6z
			 M180.5,1c-0.9,0-3.7,0.3-3.7,0.3v39.2c0,0,2.8,0.3,3.7,0.3c0.9,0,3.7-0.3,3.7-0.3V1.3C184.2,1.3,181.4,1,180.5,1z M166.7,12.9
			v27.7c0,0,2.8,0.3,3.7,0.3c0.9,0,3.7-0.3,3.7-0.3V12.9c0,0-2.8-0.3-3.7-0.3C169.5,12.6,166.7,12.9,166.7,12.9z M166.7,1.3V8
			c0,0,2.8,0.3,3.7,0.3c0.9,0,3.7-0.3,3.7-0.3V1.3c0,0-2.8-0.3-3.7-0.3C169.5,1,166.7,1.3,166.7,1.3z M89.7,12.9v27.7
			c0,0,2.8,0.3,3.7,0.3c0.9,0,3.7-0.3,3.7-0.3V12.9c0,0-2.8-0.3-3.7-0.3C92.5,12.6,89.7,12.9,89.7,12.9z M89.7,1.3V8
			c0,0,2.8,0.3,3.7,0.3c0.9,0,3.7-0.3,3.7-0.3V1.3c0,0-2.8-0.3-3.7-0.3C92.5,1,89.7,1.3,89.7,1.3z M128.9,8.7
			c5.6-1.2,9.9-6.7,9.9-6.7s-3.5-0.3-4.4-0.3C133.5,1.7,130,2,130,2L125,8.7C125,8.7,126.8,9.1,128.9,8.7z M49,26.7
			c0,10-5.9,14.4-13.3,14.4c-7.3,0-13.3-4.4-13.3-14.4c0-9.7,5.9-14.4,13.3-14.4C43.1,12.3,49,17,49,26.7z M41.3,26.8
			c0-5.7-1.8-8.6-5.6-8.6c-3.7,0-5.6,2.9-5.6,8.6c0,5.8,1.9,8.6,5.6,8.6C39.6,35.4,41.3,32.6,41.3,26.8z M163.2,34
			c-1,0.4-2.5,1.1-6,1.1c-4.1,0-6.2-2.5-6.2-8.3c0-5.7,2.7-8.6,5.6-8.6c2.6,0,4.8,0.4,6.5,1.1c0,0,0.8-2,1-2.8c0.2-0.7,0.4-3,0.4-3
			c-2.2-0.9-5-1.3-7.8-1.3c-7.3,0-13.3,4.7-13.3,14.4c0,10,5.9,14.4,13.3,14.4c2.9,0,5.9-0.3,8-1.2c0,0-0.2-2.3-0.4-3.1
			C164.1,36.1,163.2,34,163.2,34z M141.2,24c0,1.4,0.1,14.1,0,15.5c-2.9,0.8-5.2,1.3-9.1,1.6c-5,0.4-13.7-0.9-13.7-8.9
			c0-9.2,9.7-9.8,15.3-9.3c0-4.3-2.5-4.8-5.3-4.8c-2.6,0-4.8,0.4-6.5,1.1c0,0-0.8-2-1-2.8c-0.2-0.7-0.4-3-0.4-3
			c2.2-0.9,5-1.3,7.8-1.3C135.8,12.3,141.2,14.3,141.2,24z M133.9,27.9c0,0-8.5-1.5-8.4,3.7c0.2,5.2,6.4,3.8,8.4,3.4V27.9z
			 M111.7,12.9c0-0.3,0-0.9,0.1-1.7c0.1-3.6,2.6-4,4-4c1.4,0,3,0.2,3,0.2s0.9-2.2,1-2.9c0.2-0.7,0.3-3,0.3-3s-2.7-0.5-6.8-0.5
			c-4.1,0-9.2,1.7-9.2,12v0h-4.5c0,0-0.3,2.2-0.3,2.9c0,0.7,0.3,2.9,0.3,2.9h4.5v21.9c0,0,2.8,0.3,3.7,0.3c0.9,0,3.7-0.3,3.7-0.3
			V18.7h0.7c0,0,0,0,0,0h5.6c0,0,0.3-2.2,0.3-2.9c0-0.7-0.3-2.9-0.3-2.9H111.7z M14.2,23.7c-3.9-1.1-6.3-1.6-5.5-4.2
			c0.6-2,3.5-2,6.7-1.3c1.8,0.4,3.3,1,3.3,1s0.8-2,0.9-2.7c0.2-0.7,0.3-2.8,0.3-2.8c-2.5-1-11.5-3.1-16.1,0.8
			c-2.6,2.2-3.5,5.8-2.6,8.8c0.6,2.3,2.2,3.7,4.3,4.5c4,1.6,9.1,1.6,7.9,5.2c-0.7,2.3-5.1,2.3-6.7,2.1C4.3,34.9,2,34,2,34
			s-0.8,2.1-1,2.8c-0.2,0.7-0.4,3-0.4,3c3.1,1.2,7.4,1.7,11,1.2c5-0.7,8.7-3.5,9.2-8.1C21.2,29.7,20.9,25.6,14.2,23.7z"/>
		<path id="XMLID_86_" class="st1" d="M235.6,3.1c0,0-0.9,2.5-1.3,3.3c-0.4,0.8-1.9,2.9-1.9,2.9c-1.7-0.9-3.5-1.3-5.5-1.3
			c-3.9,0-7.5,1.9-9.7,4.8h0C215,9.9,211.5,8,207.6,8c-2,0-3.9,0.5-5.5,1.3c0,0-1.5-2.2-1.9-2.9c-0.4-0.8-1.3-3.3-1.3-3.3
			c2.6-1.4,5.6-2.1,8.7-2.1c3.5,0,6.8,1,9.7,2.6h0C220,2,223.4,1,226.9,1C230,1,233,1.8,235.6,3.1z M228.6,19.6l0,3.4
			c0,6.9-4.5,11.4-11.3,11.4h0c-6.9,0-11.3-4.5-11.3-11.4l0-3.4c0,0-2.5-0.3-3.4-0.3c-0.8,0-3.4,0.3-3.4,0.3l0,3.4
			c0,10.7,7.5,18.1,18.1,18.1h0c10.6,0,18.1-7.4,18.1-18.1l0-3.4c0,0-2.5-0.3-3.4-0.3S228.6,19.6,228.6,19.6z"/>
	</g>
</g>
</svg>
